<svg xmlns="http://www.w3.org/2000/svg" viewBox="0 0 1120 760" width="1120" height="760" role="img" aria-label="SQL analytics dashboard">
  <defs>
    <linearGradient id="sd-area" x1="0" y1="0" x2="0" y2="1"><stop offset="0" stop-color="#22d3ee" stop-opacity="0.3"/><stop offset="1" stop-color="#22d3ee" stop-opacity="0"/></linearGradient>
    <linearGradient id="sd-bar" x1="0" y1="0" x2="0" y2="1"><stop offset="0" stop-color="#a78bfa"/><stop offset="1" stop-color="#6366f1"/></linearGradient>
    <style>text{font-family:'Inter',system-ui,-apple-system,Segoe UI,sans-serif;}.h{fill:#f3f3f8;}.m{fill:#9a9cb4;}.s{fill:#6c6e86;}</style>
  </defs>
  <rect width="1120" height="760" fill="#0c0c13"/>
  <rect width="1120" height="48" fill="#14141e"/>
  <line x1="0" y1="48" x2="1120" y2="48" stroke="#ffffff" stroke-opacity="0.07"/>
  <circle cx="24" cy="24" r="5" fill="#ffffff" fill-opacity="0.18"/><circle cx="42" cy="24" r="5" fill="#ffffff" fill-opacity="0.18"/><circle cx="60" cy="24" r="5" fill="#ffffff" fill-opacity="0.18"/>
  <rect x="392" y="12" width="336" height="24" rx="12" fill="#222232"/>
  <text x="560" y="29" font-size="12" text-anchor="middle" class="m">app.algorythmos.com/dashboards</text>
  <text x="40" y="92" font-size="18" font-weight="600" class="h">Revenue overview</text>
  <text x="40" y="114" font-size="12.5" class="m">single semantic layer · refreshed 4 min ago</text>
  <rect x="956" y="76" width="124" height="28" rx="14" fill="#34d399" fill-opacity="0.12"/>
  <circle cx="978" cy="90" r="4" fill="#34d399"/><text x="992" y="94" font-size="11.5" fill="#34d399">metrics trusted</text>

  <!-- KPI row -->
  <g>
    <rect x="40" y="140" width="250" height="98" rx="13" fill="#15151f" stroke="#ffffff" stroke-opacity="0.07"/>
    <text x="62" y="172" font-size="12" class="m">Revenue (MTD)</text>
    <text x="62" y="204" font-size="25" font-weight="700" class="h">$4.82M</text>
    <text x="62" y="225" font-size="11" fill="#34d399">▲ 8.1%</text>
  </g>
  <g>
    <rect x="304" y="140" width="250" height="98" rx="13" fill="#15151f" stroke="#ffffff" stroke-opacity="0.07"/>
    <text x="326" y="172" font-size="12" class="m">Active accounts</text>
    <text x="326" y="204" font-size="25" font-weight="700" class="h">1,946</text>
    <text x="326" y="225" font-size="11" fill="#34d399">▲ 124</text>
  </g>
  <g>
    <rect x="568" y="140" width="250" height="98" rx="13" fill="#15151f" stroke="#ffffff" stroke-opacity="0.07"/>
    <text x="590" y="172" font-size="12" class="m">Net revenue retention</text>
    <text x="590" y="204" font-size="25" font-weight="700" class="h">114%</text>
    <text x="590" y="225" font-size="11" fill="#34d399">▲ 2 pts</text>
  </g>
  <g>
    <rect x="832" y="140" width="248" height="98" rx="13" fill="#15151f" stroke="#ffffff" stroke-opacity="0.07"/>
    <text x="854" y="172" font-size="12" class="m">Churn</text>
    <text x="854" y="204" font-size="25" font-weight="700" class="h">1.4%</text>
    <text x="854" y="225" font-size="11" fill="#34d399">▼ 0.3 pts</text>
  </g>

  <!-- bar chart -->
  <rect x="40" y="262" width="664" height="438" rx="14" fill="#15151f" stroke="#ffffff" stroke-opacity="0.07"/>
  <text x="64" y="298" font-size="14" font-weight="600" class="h">Monthly revenue</text>
  <text x="64" y="318" font-size="11.5" class="s">last 9 months · $M</text>
  <g stroke="#ffffff" stroke-opacity="0.05"><line x1="64" y1="380" x2="680" y2="380"/><line x1="64" y1="470" x2="680" y2="470"/><line x1="64" y1="560" x2="680" y2="560"/></g>
  <g fill="url(#sd-bar)">
    <rect x="80" y="470" width="44" height="180" rx="4"/>
    <rect x="148" y="446" width="44" height="204" rx="4"/>
    <rect x="216" y="488" width="44" height="162" rx="4"/>
    <rect x="284" y="420" width="44" height="230" rx="4"/>
    <rect x="352" y="398" width="44" height="252" rx="4"/>
    <rect x="420" y="438" width="44" height="212" rx="4"/>
    <rect x="488" y="372" width="44" height="278" rx="4"/>
    <rect x="556" y="348" width="44" height="302" rx="4"/>
    <rect x="624" y="318" width="44" height="332" rx="4"/>
  </g>
  <g font-size="10.5" class="s"><text x="92" y="672">Sep</text><text x="160" y="672">Oct</text><text x="228" y="672">Nov</text><text x="296" y="672">Dec</text><text x="364" y="672">Jan</text><text x="432" y="672">Feb</text><text x="500" y="672">Mar</text><text x="568" y="672">Apr</text><text x="636" y="672">May</text></g>

  <!-- trend / metrics panel -->
  <rect x="720" y="262" width="360" height="210" rx="14" fill="#15151f" stroke="#ffffff" stroke-opacity="0.07"/>
  <text x="744" y="298" font-size="14" font-weight="600" class="h">Pipeline trend</text>
  <path d="M744 432 L744 412 L792 418 L840 398 L888 404 L936 378 L984 388 L1032 360 L1056 366 L1056 432 Z" fill="url(#sd-area)"/>
  <polyline points="744,412 792,418 840,398 888,404 936,378 984,388 1032,360 1056,366" fill="none" stroke="#22d3ee" stroke-width="2.5" stroke-linecap="round" stroke-linejoin="round"/>

  <!-- semantic metrics list -->
  <rect x="720" y="490" width="360" height="210" rx="14" fill="#15151f" stroke="#ffffff" stroke-opacity="0.07"/>
  <text x="744" y="526" font-size="14" font-weight="600" class="h">Governed metrics</text>
  <g>
    <circle cx="748" cy="558" r="3" fill="#a78bfa"/><text x="762" y="562" font-size="12" class="h">revenue</text><text x="1056" y="562" font-size="11" text-anchor="end" class="s">certified</text>
    <circle cx="748" cy="592" r="3" fill="#a78bfa"/><text x="762" y="596" font-size="12" class="h">net_revenue_retention</text><text x="1056" y="596" font-size="11" text-anchor="end" class="s">certified</text>
    <circle cx="748" cy="626" r="3" fill="#a78bfa"/><text x="762" y="630" font-size="12" class="h">gross_margin</text><text x="1056" y="630" font-size="11" text-anchor="end" class="s">certified</text>
    <circle cx="748" cy="660" r="3" fill="#22d3ee"/><text x="762" y="664" font-size="12" class="h">active_accounts</text><text x="1056" y="664" font-size="11" text-anchor="end" class="s">certified</text>
  </g>
</svg>
